# xmcd CD database file
#
# Track frame offsets:
#	150
#	17450
#	40140
#	62102
#	83137
#	99417
#	119017
#	138042
#	163220
#	188502
#	203167
#	223717
#	246912
#	272125
#
# Disc length: 3856 seconds
#
# Revision: 0
# Processed by: cddbd v1.5.2PL0 Copyright (c) Steve Scherf et al.
# Submitted via: CDex 1.95
#
DISCID=c20f0e0e
DTITLE=Diversos - The Best of New Age - Vol 3
DYEAR=2001
DGENRE=New Age
TTITLE0=THE MINTH GATE
TTITLE1=SNOW
TTITLE2=SEEDS OF LOVE
TTITLE3=JOURNEY OF THE ANGELS
TTITLE4=TRAINS AND WINTER RAINS
TTITLE5=DREAMS ARE MORE PRECIOUS
TTITLE6=THE SPIRIT OF CHRISTMAS
TTITLE7=ANGEL WINGS
TTITLE8=DE L'ABIME AU RIVAGE....SPENTELE STELLE
TTITLE9=ABYTINE, ANYWARE
TTITLE10=GUIDE ME GOD
TTITLE11=MIRACLE OF LOVE
TTITLE12=ONE OF US
TTITLE13=DE PROFUNDIS
EXTD=YEAR: 2001
EXTT0=
EXTT1=
EXTT2=
EXTT3=
EXTT4=
EXTT5=
EXTT6=
EXTT7=
EXTT8=
EXTT9=
EXTT10=
EXTT11=
EXTT12=
EXTT13=
PLAYORDER=
